# MagicaVoxel @ Ephtracy

# group
o 

# material
mtllib AsphaltOldDamaged.mtl
usemtl palette

# normals
vn -1 0 0
vn 1 0 0
vn 0 0 1
vn 0 0 -1
vn 0 -1 0
vn 0 1 0

# texcoords
vt 0.970703 0.5
vt 0.978516 0.5

# verts
v 0 2 0
v 0 2 -0.8
v 0 2.1 -0.6
v 0 2.1 -0.8
v 0 2.2 -0.6
v 0 2.2 -0.8
v 0 2.3 0
v 0 2.3 -0.6
v 0.1 2.2 -0.7
v 0.1 2.2 -0.8
v 0.1 2.3 -0.7
v 0.1 2.3 -0.8
v 0.3 2.2 0
v 0.3 2.2 -0.1
v 0.3 2.3 0
v 0.3 2.3 -0.1
v 0.4 2.1 -0.1
v 0.4 2.1 -0.2
v 0.4 2.1 -0.5
v 0.4 2.1 -0.6
v 0.4 2.2 -0.1
v 0.4 2.2 -0.2
v 0.4 2.2 -0.5
v 0.4 2.2 -0.6
v 0.4 2.2 -0.7
v 0.4 2.3 -0.6
v 0.4 2.3 -0.7
v 0.5 2.1 -0.3
v 0.5 2.1 -0.4
v 0.5 2.2 -0.3
v 0.5 2.2 -0.4
v 0.5 2.2 -0.5
v 0.5 2.2 -0.6
v 0.5 2.3 -0.5
v 0.5 2.3 -0.6
v 0.6 2.1 -0.2
v 0.6 2.1 -0.3
v 0.6 2.1 -0.4
v 0.6 2.1 -0.5
v 0.6 2.2 0
v 0.6 2.2 -0.1
v 0.6 2.2 -0.2
v 0.6 2.2 -0.3
v 0.6 2.2 -0.4
v 0.6 2.2 -0.5
v 0.6 2.3 0
v 0.6 2.3 -0.1
v 0.6 2.3 -0.2
v 0.6 2.3 -0.3
v 0.7 2.2 -0.3
v 0.7 2.2 -0.6
v 0.7 2.3 -0.3
v 0.7 2.3 -0.6
v 0.1 2.1 -0.4
v 0.1 2.1 -0.5
v 0.1 2.2 0
v 0.1 2.2 -0.1
v 0.1 2.2 -0.3
v 0.1 2.2 -0.4
v 0.1 2.2 -0.5
v 0.1 2.2 -0.6
v 0.1 2.3 0
v 0.1 2.3 -0.1
v 0.1 2.3 -0.3
v 0.1 2.3 -0.6
v 0.2 2.1 -0.3
v 0.2 2.1 -0.4
v 0.2 2.1 -0.5
v 0.2 2.1 -0.6
v 0.2 2.2 -0.1
v 0.2 2.2 -0.3
v 0.2 2.2 -0.4
v 0.2 2.2 -0.5
v 0.2 2.2 -0.6
v 0.2 2.3 -0.1
v 0.2 2.3 -0.3
v 0.3 2.1 -0.1
v 0.3 2.1 -0.3
v 0.3 2.2 -0.1
v 0.3 2.2 -0.3
v 0.5 2.2 0
v 0.5 2.2 -0.1
v 0.5 2.2 -0.6
v 0.5 2.2 -0.7
v 0.5 2.3 0
v 0.5 2.3 -0.1
v 0.5 2.3 -0.6
v 0.5 2.3 -0.7
v 0.6 2.2 -0.5
v 0.6 2.2 -0.6
v 0.6 2.3 -0.5
v 0.6 2.3 -0.6
v 0.7 2.2 -0.2
v 0.7 2.2 -0.3
v 0.7 2.2 -0.7
v 0.7 2.2 -0.8
v 0.7 2.3 -0.2
v 0.7 2.3 -0.3
v 0.7 2.3 -0.7
v 0.7 2.3 -0.8
v 0.8 2 0
v 0.8 2 -0.8
v 0.8 2.1 0
v 0.8 2.1 -0.3
v 0.8 2.1 -0.6
v 0.8 2.1 -0.8
v 0.8 2.2 0
v 0.8 2.2 -0.1
v 0.8 2.2 -0.3
v 0.8 2.2 -0.6
v 0.8 2.2 -0.8
v 0.8 2.3 0
v 0.8 2.3 -0.1
v 0.8 2.3 -0.3
v 0.8 2.3 -0.6
v 0 2 0
v 0 2.3 0
v 0.1 2.1 0
v 0.1 2.2 0
v 0.1 2.3 0
v 0.3 2.1 0
v 0.3 2.2 0
v 0.3 2.3 0
v 0.5 2.1 0
v 0.5 2.2 0
v 0.5 2.3 0
v 0.6 2.1 0
v 0.6 2.2 0
v 0.6 2.3 0
v 0.7 2.1 0
v 0.7 2.2 0
v 0.8 2 0
v 0.8 2.1 0
v 0.8 2.2 0
v 0.8 2.3 0
v 0.1 2.2 -0.1
v 0.1 2.3 -0.1
v 0.2 2.2 -0.1
v 0.2 2.3 -0.1
v 0.6 2.2 -0.2
v 0.6 2.3 -0.2
v 0.7 2.2 -0.2
v 0.7 2.3 -0.2
v 0.5 2.1 -0.3
v 0.5 2.2 -0.3
v 0.6 2.1 -0.3
v 0.6 2.2 -0.3
v 0.7 2.2 -0.3
v 0.7 2.3 -0.3
v 0.8 2.2 -0.3
v 0.8 2.3 -0.3
v 0.1 2.1 -0.5
v 0.1 2.2 -0.5
v 0.2 2.1 -0.5
v 0.2 2.2 -0.5
v 0.4 2.1 -0.5
v 0.4 2.2 -0.5
v 0.5 2.2 -0.5
v 0.5 2.3 -0.5
v 0.6 2.1 -0.5
v 0.6 2.2 -0.5
v 0.6 2.3 -0.5
v 0.2 2.1 -0.6
v 0.2 2.2 -0.6
v 0.4 2.1 -0.6
v 0.4 2.2 -0.6
v 0.4 2.3 -0.6
v 0.5 2.2 -0.6
v 0.5 2.3 -0.6
v 0.1 2.2 -0.7
v 0.1 2.3 -0.7
v 0.4 2.2 -0.7
v 0.4 2.3 -0.7
v 0.5 2.2 -0.7
v 0.5 2.3 -0.7
v 0.7 2.2 -0.7
v 0.7 2.3 -0.7
v 0.3 2.1 -0.1
v 0.3 2.2 -0.1
v 0.3 2.3 -0.1
v 0.4 2.1 -0.1
v 0.4 2.2 -0.1
v 0.5 2.2 -0.1
v 0.5 2.3 -0.1
v 0.6 2.2 -0.1
v 0.6 2.3 -0.1
v 0.8 2.2 -0.1
v 0.8 2.3 -0.1
v 0.4 2.1 -0.2
v 0.4 2.2 -0.2
v 0.5 2.1 -0.2
v 0.6 2.1 -0.2
v 0.6 2.2 -0.2
v 0.1 2.2 -0.3
v 0.1 2.3 -0.3
v 0.2 2.1 -0.3
v 0.2 2.2 -0.3
v 0.2 2.3 -0.3
v 0.3 2.1 -0.3
v 0.3 2.2 -0.3
v 0.6 2.2 -0.3
v 0.6 2.3 -0.3
v 0.7 2.2 -0.3
v 0.7 2.3 -0.3
v 0.1 2.1 -0.4
v 0.1 2.2 -0.4
v 0.2 2.1 -0.4
v 0.2 2.2 -0.4
v 0.5 2.1 -0.4
v 0.5 2.2 -0.4
v 0.6 2.1 -0.4
v 0.6 2.2 -0.4
v 0 2.2 -0.6
v 0 2.3 -0.6
v 0.1 2.2 -0.6
v 0.1 2.3 -0.6
v 0.5 2.2 -0.6
v 0.5 2.3 -0.6
v 0.6 2.2 -0.6
v 0.6 2.3 -0.6
v 0.7 2.2 -0.6
v 0.7 2.3 -0.6
v 0.8 2.2 -0.6
v 0.8 2.3 -0.6
v 0 2 -0.8
v 0 2.1 -0.8
v 0 2.2 -0.8
v 0.1 2.1 -0.8
v 0.1 2.2 -0.8
v 0.1 2.3 -0.8
v 0.7 2.1 -0.8
v 0.7 2.2 -0.8
v 0.7 2.3 -0.8
v 0.8 2 -0.8
v 0.8 2.1 -0.8
v 0.8 2.2 -0.8
v 0 2 0
v 0.8 2 0
v 0.3 2 -0.1
v 0.4 2 -0.1
v 0.4 2 -0.2
v 0.5 2 -0.2
v 0.2 2 -0.3
v 0.3 2 -0.3
v 0.1 2 -0.4
v 0.2 2 -0.4
v 0.5 2 -0.4
v 0.6 2 -0.4
v 0.1 2 -0.5
v 0.2 2 -0.5
v 0.4 2 -0.5
v 0.6 2 -0.5
v 0.2 2 -0.6
v 0.4 2 -0.6
v 0 2 -0.8
v 0.8 2 -0.8
v 0.3 2.1 -0.1
v 0.4 2.1 -0.1
v 0.4 2.1 -0.2
v 0.5 2.1 -0.2
v 0.6 2.1 -0.2
v 0.2 2.1 -0.3
v 0.3 2.1 -0.3
v 0.5 2.1 -0.3
v 0.6 2.1 -0.3
v 0.1 2.1 -0.4
v 0.2 2.1 -0.4
v 0.5 2.1 -0.4
v 0.6 2.1 -0.4
v 0.1 2.1 -0.5
v 0.2 2.1 -0.5
v 0.4 2.1 -0.5
v 0.6 2.1 -0.5
v 0.2 2.1 -0.6
v 0.4 2.1 -0.6
v 0.1 2.2 0
v 0.3 2.2 0
v 0.5 2.2 0
v 0.6 2.2 0
v 0.1 2.2 -0.1
v 0.2 2.2 -0.1
v 0.3 2.2 -0.1
v 0.4 2.2 -0.1
v 0.5 2.2 -0.1
v 0.6 2.2 -0.1
v 0.8 2.2 -0.1
v 0.4 2.2 -0.2
v 0.6 2.2 -0.2
v 0.7 2.2 -0.2
v 0.1 2.2 -0.3
v 0.2 2.2 -0.3
v 0.3 2.2 -0.3
v 0.5 2.2 -0.3
v 0.6 2.2 -0.3
v 0.7 2.2 -0.3
v 0.8 2.2 -0.3
v 0.1 2.2 -0.4
v 0.2 2.2 -0.4
v 0.5 2.2 -0.4
v 0.6 2.2 -0.4
v 0.1 2.2 -0.5
v 0.2 2.2 -0.5
v 0.4 2.2 -0.5
v 0.5 2.2 -0.5
v 0.6 2.2 -0.5
v 0 2.2 -0.6
v 0.1 2.2 -0.6
v 0.2 2.2 -0.6
v 0.4 2.2 -0.6
v 0.5 2.2 -0.6
v 0.6 2.2 -0.6
v 0.7 2.2 -0.6
v 0.8 2.2 -0.6
v 0.1 2.2 -0.7
v 0.4 2.2 -0.7
v 0.5 2.2 -0.7
v 0.7 2.2 -0.7
v 0 2.2 -0.8
v 0.1 2.2 -0.8
v 0.7 2.2 -0.8
v 0.8 2.2 -0.8
v 0 2.3 0
v 0.1 2.3 0
v 0.3 2.3 0
v 0.5 2.3 0
v 0.6 2.3 0
v 0.8 2.3 0
v 0.1 2.3 -0.1
v 0.2 2.3 -0.1
v 0.3 2.3 -0.1
v 0.5 2.3 -0.1
v 0.6 2.3 -0.1
v 0.8 2.3 -0.1
v 0.6 2.3 -0.2
v 0.7 2.3 -0.2
v 0.1 2.3 -0.3
v 0.2 2.3 -0.3
v 0.6 2.3 -0.3
v 0.7 2.3 -0.3
v 0.8 2.3 -0.3
v 0.5 2.3 -0.5
v 0.6 2.3 -0.5
v 0 2.3 -0.6
v 0.1 2.3 -0.6
v 0.4 2.3 -0.6
v 0.5 2.3 -0.6
v 0.6 2.3 -0.6
v 0.7 2.3 -0.6
v 0.8 2.3 -0.6
v 0.1 2.3 -0.7
v 0.4 2.3 -0.7
v 0.5 2.3 -0.7
v 0.7 2.3 -0.7
v 0.1 2.3 -0.8
v 0.7 2.3 -0.8

# faces
f 3/1/1 2/1/1 1/1/1
f 4/1/1 2/1/1 3/1/1
f 5/1/1 3/1/1 1/1/1
f 5/2/1 4/2/1 3/2/1
f 6/2/1 4/2/1 5/2/1
f 7/1/1 5/1/1 1/1/1
f 8/1/1 5/1/1 7/1/1
f 11/1/1 10/1/1 9/1/1
f 12/1/1 10/1/1 11/1/1
f 15/1/1 14/1/1 13/1/1
f 16/1/1 14/1/1 15/1/1
f 21/2/1 18/2/1 17/2/1
f 22/2/1 18/2/1 21/2/1
f 23/2/1 20/2/1 19/2/1
f 24/2/1 20/2/1 23/2/1
f 26/1/1 25/1/1 24/1/1
f 27/1/1 25/1/1 26/1/1
f 30/2/1 29/2/1 28/2/1
f 31/2/1 29/2/1 30/2/1
f 34/1/1 33/1/1 32/1/1
f 35/1/1 33/1/1 34/1/1
f 42/1/1 37/1/1 36/1/1
f 43/1/1 37/1/1 42/1/1
f 44/2/1 39/2/1 38/2/1
f 45/2/1 39/2/1 44/2/1
f 46/1/1 41/1/1 40/1/1
f 47/1/1 41/1/1 46/1/1
f 48/1/1 43/1/1 42/1/1
f 49/1/1 43/1/1 48/1/1
f 52/1/1 51/1/1 50/1/1
f 53/1/1 51/1/1 52/1/1
f 54/1/2 55/1/2 59/1/2
f 59/1/2 55/1/2 60/1/2
f 56/1/2 57/1/2 62/1/2
f 62/1/2 57/1/2 63/1/2
f 60/1/2 61/1/2 64/1/2
f 58/1/2 59/1/2 64/1/2
f 59/1/2 60/1/2 64/1/2
f 64/1/2 61/1/2 65/1/2
f 66/2/2 67/2/2 71/2/2
f 71/2/2 67/2/2 72/2/2
f 68/2/2 69/2/2 73/2/2
f 73/2/2 69/2/2 74/2/2
f 70/1/2 71/1/2 75/1/2
f 75/1/2 71/1/2 76/1/2
f 77/2/2 78/2/2 79/2/2
f 79/2/2 78/2/2 80/2/2
f 81/1/2 82/1/2 85/1/2
f 85/1/2 82/1/2 86/1/2
f 83/1/2 84/1/2 87/1/2
f 87/1/2 84/1/2 88/1/2
f 89/1/2 90/1/2 91/1/2
f 91/1/2 90/1/2 92/1/2
f 93/1/2 94/1/2 97/1/2
f 97/1/2 94/1/2 98/1/2
f 95/1/2 96/1/2 99/1/2
f 99/1/2 96/1/2 100/1/2
f 101/1/2 102/1/2 103/1/2
f 103/1/2 102/1/2 104/1/2
f 104/1/2 102/1/2 105/1/2
f 105/1/2 102/1/2 106/1/2
f 103/2/2 104/2/2 107/2/2
f 107/2/2 104/2/2 108/2/2
f 104/1/2 105/1/2 109/1/2
f 108/2/2 104/2/2 109/2/2
f 105/2/2 106/2/2 110/2/2
f 109/1/2 105/1/2 110/1/2
f 110/2/2 106/2/2 111/2/2
f 107/1/2 108/1/2 112/1/2
f 112/1/2 108/1/2 113/1/2
f 109/1/2 110/1/2 114/1/2
f 114/1/2 110/1/2 115/1/2
f 118/1/3 117/1/3 116/1/3
f 119/1/3 117/1/3 118/1/3
f 120/1/3 117/1/3 119/1/3
f 121/1/3 118/1/3 116/1/3
f 121/2/3 119/2/3 118/2/3
f 122/2/3 119/2/3 121/2/3
f 124/1/3 121/1/3 116/1/3
f 124/1/3 123/1/3 122/1/3
f 124/1/3 122/1/3 121/1/3
f 125/1/3 123/1/3 124/1/3
f 126/1/3 123/1/3 125/1/3
f 127/1/3 124/1/3 116/1/3
f 127/2/3 125/2/3 124/2/3
f 128/2/3 125/2/3 127/2/3
f 130/1/3 127/1/3 116/1/3
f 130/1/3 129/1/3 128/1/3
f 130/1/3 128/1/3 127/1/3
f 131/1/3 129/1/3 130/1/3
f 132/1/3 130/1/3 116/1/3
f 133/2/3 131/2/3 130/2/3
f 133/1/3 130/1/3 132/1/3
f 134/1/3 129/1/3 131/1/3
f 134/2/3 131/2/3 133/2/3
f 135/1/3 129/1/3 134/1/3
f 138/1/3 137/1/3 136/1/3
f 139/1/3 137/1/3 138/1/3
f 142/1/3 141/1/3 140/1/3
f 143/1/3 141/1/3 142/1/3
f 146/2/3 145/2/3 144/2/3
f 147/2/3 145/2/3 146/2/3
f 150/1/3 149/1/3 148/1/3
f 151/1/3 149/1/3 150/1/3
f 154/2/3 153/2/3 152/2/3
f 155/2/3 153/2/3 154/2/3
f 158/2/3 157/2/3 156/2/3
f 160/2/3 158/2/3 156/2/3
f 161/1/3 159/1/3 158/1/3
f 161/2/3 158/2/3 160/2/3
f 162/1/3 159/1/3 161/1/3
f 165/2/3 164/2/3 163/2/3
f 166/2/3 164/2/3 165/2/3
f 168/1/3 167/1/3 166/1/3
f 169/1/3 167/1/3 168/1/3
f 172/1/3 171/1/3 170/1/3
f 173/1/3 171/1/3 172/1/3
f 176/1/3 175/1/3 174/1/3
f 177/1/3 175/1/3 176/1/3
f 178/1/4 179/1/4 181/1/4
f 179/1/4 180/1/4 181/1/4
f 181/1/4 180/1/4 182/1/4
f 182/1/4 180/1/4 183/1/4
f 183/1/4 180/1/4 184/1/4
f 185/1/4 186/1/4 187/1/4
f 187/1/4 186/1/4 188/1/4
f 189/2/4 190/2/4 191/2/4
f 191/2/4 190/2/4 192/2/4
f 192/2/4 190/2/4 193/2/4
f 194/1/4 195/1/4 197/1/4
f 197/1/4 195/1/4 198/1/4
f 196/2/4 197/2/4 199/2/4
f 199/2/4 197/2/4 200/2/4
f 201/1/4 202/1/4 203/1/4
f 203/1/4 202/1/4 204/1/4
f 205/2/4 206/2/4 207/2/4
f 207/2/4 206/2/4 208/2/4
f 209/2/4 210/2/4 211/2/4
f 211/2/4 210/2/4 212/2/4
f 213/1/4 214/1/4 215/1/4
f 215/1/4 214/1/4 216/1/4
f 217/1/4 218/1/4 219/1/4
f 219/1/4 218/1/4 220/1/4
f 221/1/4 222/1/4 223/1/4
f 223/1/4 222/1/4 224/1/4
f 225/1/4 226/1/4 228/1/4
f 226/2/4 227/2/4 228/2/4
f 228/2/4 227/2/4 229/2/4
f 225/1/4 228/1/4 231/1/4
f 229/1/4 230/1/4 231/1/4
f 228/1/4 229/1/4 231/1/4
f 231/1/4 230/1/4 232/1/4
f 232/1/4 230/1/4 233/1/4
f 225/1/4 231/1/4 234/1/4
f 231/2/4 232/2/4 235/2/4
f 234/1/4 231/1/4 235/1/4
f 235/2/4 232/2/4 236/2/4
f 239/1/5 238/1/5 237/1/5
f 240/1/5 238/1/5 239/1/5
f 241/2/5 240/2/5 239/2/5
f 241/1/5 238/1/5 240/1/5
f 242/1/5 238/1/5 241/1/5
f 243/1/5 239/1/5 237/1/5
f 244/2/5 241/2/5 239/2/5
f 244/1/5 239/1/5 243/1/5
f 244/2/5 242/2/5 241/2/5
f 245/1/5 243/1/5 237/1/5
f 246/2/5 244/2/5 243/2/5
f 246/1/5 243/1/5 245/1/5
f 247/1/5 238/1/5 242/1/5
f 247/2/5 244/2/5 246/2/5
f 247/2/5 242/2/5 244/2/5
f 248/1/5 238/1/5 247/1/5
f 249/2/5 246/2/5 245/2/5
f 249/1/5 245/1/5 237/1/5
f 249/2/5 248/2/5 247/2/5
f 249/2/5 247/2/5 246/2/5
f 250/2/5 248/2/5 249/2/5
f 251/2/5 248/2/5 250/2/5
f 252/1/5 238/1/5 248/1/5
f 252/2/5 248/2/5 251/2/5
f 253/2/5 251/2/5 250/2/5
f 253/1/5 250/1/5 249/1/5
f 254/1/5 252/1/5 251/1/5
f 254/2/5 251/2/5 253/2/5
f 255/1/5 249/1/5 237/1/5
f 255/1/5 253/1/5 249/1/5
f 255/1/5 254/1/5 253/1/5
f 256/1/5 238/1/5 252/1/5
f 256/1/5 254/1/5 255/1/5
f 256/1/5 252/1/5 254/1/5
f 257/2/6 258/2/6 259/2/6
f 257/2/6 259/2/6 263/2/6
f 259/2/6 260/2/6 263/2/6
f 260/1/6 261/1/6 264/1/6
f 263/2/6 260/2/6 264/2/6
f 264/1/6 261/1/6 265/1/6
f 262/2/6 263/2/6 267/2/6
f 263/2/6 264/2/6 267/2/6
f 267/2/6 264/2/6 268/2/6
f 266/2/6 267/2/6 270/2/6
f 268/2/6 269/2/6 270/2/6
f 267/2/6 268/2/6 270/2/6
f 270/2/6 269/2/6 271/2/6
f 271/2/6 269/2/6 272/2/6
f 272/2/6 269/2/6 273/2/6
f 271/2/6 272/2/6 274/2/6
f 274/2/6 272/2/6 275/2/6
f 276/2/6 277/2/6 280/2/6
f 280/2/6 277/2/6 281/2/6
f 281/2/6 277/2/6 282/2/6
f 278/2/6 279/2/6 284/2/6
f 284/2/6 279/2/6 285/2/6
f 285/2/6 286/2/6 287/2/6
f 284/2/6 285/2/6 287/2/6
f 283/2/6 284/2/6 287/2/6
f 287/2/6 286/2/6 288/2/6
f 288/2/6 286/2/6 289/2/6
f 281/2/6 282/2/6 291/2/6
f 291/2/6 282/2/6 292/2/6
f 289/2/6 286/2/6 295/2/6
f 295/2/6 286/2/6 296/2/6
f 290/2/6 291/2/6 297/2/6
f 297/2/6 291/2/6 298/2/6
f 293/2/6 294/2/6 299/2/6
f 294/2/6 295/2/6 299/2/6
f 299/2/6 295/2/6 300/2/6
f 300/2/6 295/2/6 305/2/6
f 301/2/6 302/2/6 307/2/6
f 307/2/6 302/2/6 308/2/6
f 303/2/6 304/2/6 309/2/6
f 309/2/6 304/2/6 310/2/6
f 305/2/6 295/2/6 311/2/6
f 311/2/6 295/2/6 312/2/6
f 307/2/6 308/2/6 314/2/6
f 306/2/6 307/2/6 314/2/6
f 308/2/6 309/2/6 314/2/6
f 314/2/6 309/2/6 315/2/6
f 312/2/6 313/2/6 316/2/6
f 311/2/6 312/2/6 316/2/6
f 310/2/6 311/2/6 316/2/6
f 316/2/6 313/2/6 317/2/6
f 306/2/6 314/2/6 318/2/6
f 318/2/6 314/2/6 319/2/6
f 317/2/6 313/2/6 320/2/6
f 320/2/6 313/2/6 321/2/6
f 322/1/6 323/1/6 328/1/6
f 324/1/6 325/1/6 330/1/6
f 330/1/6 325/1/6 331/1/6
f 326/1/6 327/1/6 332/1/6
f 332/1/6 327/1/6 333/1/6
f 328/1/6 329/1/6 336/1/6
f 322/1/6 328/1/6 336/1/6
f 336/1/6 329/1/6 337/1/6
f 334/1/6 335/1/6 338/1/6
f 338/1/6 335/1/6 339/1/6
f 322/1/6 336/1/6 343/1/6
f 343/1/6 336/1/6 344/1/6
f 341/1/6 342/1/6 346/1/6
f 346/1/6 342/1/6 347/1/6
f 339/1/6 340/1/6 348/1/6
f 348/1/6 340/1/6 349/1/6
f 345/1/6 346/1/6 351/1/6
f 351/1/6 346/1/6 352/1/6
f 350/1/6 351/1/6 354/1/6
f 352/1/6 353/1/6 354/1/6
f 351/1/6 352/1/6 354/1/6
f 354/1/6 353/1/6 355/1/6
