# MagicaVoxel @ Ephtracy

# group
o 

# material
mtllib BananaUporot.mtl
usemtl palette

# normals
vn -1 0 0
vn 1 0 0
vn 0 0 1
vn 0 0 -1
vn 0 -1 0
vn 0 1 0

# texcoords
vt 0.0214844 0.5
vt 0.396484 0.5

# verts
v 0.1 2 -0.7
v 0.1 2 -0.8
v 0.1 2.1 -0.7
v 0.1 2.1 -0.8
v 0.2 2 -0.3
v 0.2 2 -0.6
v 0.2 2 -0.7
v 0.2 2.1 -0.3
v 0.2 2.1 -0.5
v 0.2 2.1 -0.6
v 0.2 2.1 -0.7
v 0.2 2.2 -0.5
v 0.2 2.2 -0.6
v 0.3 2 -0.2
v 0.3 2 -0.3
v 0.3 2.1 -0.2
v 0.3 2.1 -0.3
v 0.3 2.1 -0.5
v 0.3 2.2 -0.3
v 0.3 2.2 -0.5
v 0.4 2 -0.1
v 0.4 2 -0.2
v 0.4 2.1 -0.1
v 0.4 2.1 -0.2
v 0.4 2.1 -0.3
v 0.4 2.2 -0.2
v 0.4 2.2 -0.3
v 0.5 2.1 -0.1
v 0.5 2.1 -0.2
v 0.5 2.2 -0.1
v 0.5 2.2 -0.2
v 0.2 2 -0.7
v 0.2 2 -0.8
v 0.2 2.1 -0.7
v 0.2 2.1 -0.8
v 0.3 2 -0.6
v 0.3 2 -0.7
v 0.3 2.1 -0.5
v 0.3 2.1 -0.6
v 0.3 2.1 -0.7
v 0.3 2.2 -0.5
v 0.3 2.2 -0.6
v 0.4 2 -0.5
v 0.4 2 -0.6
v 0.4 2.1 -0.4
v 0.4 2.1 -0.5
v 0.4 2.1 -0.6
v 0.4 2.2 -0.4
v 0.4 2.2 -0.5
v 0.5 2 -0.4
v 0.5 2 -0.5
v 0.5 2.1 -0.3
v 0.5 2.1 -0.4
v 0.5 2.1 -0.5
v 0.5 2.2 -0.3
v 0.5 2.2 -0.4
v 0.6 2 -0.3
v 0.6 2 -0.4
v 0.6 2.1 -0.2
v 0.6 2.1 -0.3
v 0.6 2.1 -0.4
v 0.6 2.2 -0.2
v 0.6 2.2 -0.3
v 0.7 2 -0.1
v 0.7 2 -0.2
v 0.7 2 -0.3
v 0.7 2.1 -0.2
v 0.7 2.1 -0.3
v 0.7 2.2 -0.1
v 0.7 2.2 -0.2
v 0.4 2 -0.1
v 0.4 2.1 -0.1
v 0.5 2.1 -0.1
v 0.5 2.2 -0.1
v 0.6 2 -0.1
v 0.6 2.2 -0.1
v 0.7 2 -0.1
v 0.7 2.2 -0.1
v 0.3 2 -0.2
v 0.3 2.1 -0.2
v 0.4 2 -0.2
v 0.4 2.1 -0.2
v 0.4 2.2 -0.2
v 0.5 2.1 -0.2
v 0.5 2.2 -0.2
v 0.2 2 -0.3
v 0.2 2.1 -0.3
v 0.3 2 -0.3
v 0.3 2.1 -0.3
v 0.3 2.2 -0.3
v 0.4 2.1 -0.3
v 0.4 2.2 -0.3
v 0.2 2.1 -0.5
v 0.2 2.2 -0.5
v 0.3 2.1 -0.5
v 0.3 2.2 -0.5
v 0.1 2 -0.7
v 0.1 2.1 -0.7
v 0.2 2 -0.7
v 0.2 2.1 -0.7
v 0.6 2.1 -0.2
v 0.6 2.2 -0.2
v 0.7 2.1 -0.2
v 0.7 2.2 -0.2
v 0.5 2.1 -0.3
v 0.5 2.2 -0.3
v 0.6 2 -0.3
v 0.6 2.1 -0.3
v 0.6 2.2 -0.3
v 0.7 2 -0.3
v 0.7 2.1 -0.3
v 0.4 2.1 -0.4
v 0.4 2.2 -0.4
v 0.5 2 -0.4
v 0.5 2.1 -0.4
v 0.5 2.2 -0.4
v 0.6 2 -0.4
v 0.6 2.1 -0.4
v 0.3 2.1 -0.5
v 0.3 2.2 -0.5
v 0.4 2 -0.5
v 0.4 2.1 -0.5
v 0.4 2.2 -0.5
v 0.5 2 -0.5
v 0.5 2.1 -0.5
v 0.2 2.1 -0.6
v 0.2 2.2 -0.6
v 0.3 2 -0.6
v 0.3 2.1 -0.6
v 0.3 2.2 -0.6
v 0.4 2 -0.6
v 0.4 2.1 -0.6
v 0.2 2 -0.7
v 0.2 2.1 -0.7
v 0.3 2 -0.7
v 0.3 2.1 -0.7
v 0.1 2 -0.8
v 0.1 2.1 -0.8
v 0.2 2 -0.8
v 0.2 2.1 -0.8
v 0.4 2 -0.1
v 0.6 2 -0.1
v 0.7 2 -0.1
v 0.3 2 -0.2
v 0.4 2 -0.2
v 0.6 2 -0.2
v 0.7 2 -0.2
v 0.2 2 -0.3
v 0.3 2 -0.3
v 0.6 2 -0.3
v 0.7 2 -0.3
v 0.5 2 -0.4
v 0.6 2 -0.4
v 0.4 2 -0.5
v 0.5 2 -0.5
v 0.2 2 -0.6
v 0.3 2 -0.6
v 0.4 2 -0.6
v 0.1 2 -0.7
v 0.2 2 -0.7
v 0.3 2 -0.7
v 0.1 2 -0.8
v 0.2 2 -0.8
v 0.4 2.1 -0.1
v 0.5 2.1 -0.1
v 0.3 2.1 -0.2
v 0.4 2.1 -0.2
v 0.5 2.1 -0.2
v 0.6 2.1 -0.2
v 0.7 2.1 -0.2
v 0.2 2.1 -0.3
v 0.3 2.1 -0.3
v 0.4 2.1 -0.3
v 0.5 2.1 -0.3
v 0.6 2.1 -0.3
v 0.7 2.1 -0.3
v 0.4 2.1 -0.4
v 0.5 2.1 -0.4
v 0.6 2.1 -0.4
v 0.2 2.1 -0.5
v 0.3 2.1 -0.5
v 0.4 2.1 -0.5
v 0.5 2.1 -0.5
v 0.2 2.1 -0.6
v 0.3 2.1 -0.6
v 0.4 2.1 -0.6
v 0.1 2.1 -0.7
v 0.2 2.1 -0.7
v 0.3 2.1 -0.7
v 0.1 2.1 -0.8
v 0.2 2.1 -0.8
v 0.5 2.2 -0.1
v 0.6 2.2 -0.1
v 0.7 2.2 -0.1
v 0.4 2.2 -0.2
v 0.5 2.2 -0.2
v 0.6 2.2 -0.2
v 0.7 2.2 -0.2
v 0.3 2.2 -0.3
v 0.4 2.2 -0.3
v 0.5 2.2 -0.3
v 0.6 2.2 -0.3
v 0.4 2.2 -0.4
v 0.5 2.2 -0.4
v 0.2 2.2 -0.5
v 0.3 2.2 -0.5
v 0.4 2.2 -0.5
v 0.2 2.2 -0.6
v 0.3 2.2 -0.6

# faces
f 3/2/1 2/2/1 1/2/1
f 4/2/1 2/2/1 3/2/1
f 8/1/1 6/1/1 5/1/1
f 9/1/1 6/1/1 8/1/1
f 10/2/1 7/2/1 6/2/1
f 10/1/1 6/1/1 9/1/1
f 11/2/1 7/2/1 10/2/1
f 12/1/1 10/1/1 9/1/1
f 13/1/1 10/1/1 12/1/1
f 16/1/1 15/1/1 14/1/1
f 17/1/1 15/1/1 16/1/1
f 19/1/1 18/1/1 17/1/1
f 20/1/1 18/1/1 19/1/1
f 23/1/1 22/1/1 21/1/1
f 24/1/1 22/1/1 23/1/1
f 26/1/1 25/1/1 24/1/1
f 27/1/1 25/1/1 26/1/1
f 30/1/1 29/1/1 28/1/1
f 31/1/1 29/1/1 30/1/1
f 32/2/2 33/2/2 34/2/2
f 34/2/2 33/2/2 35/2/2
f 36/2/2 37/2/2 39/2/2
f 39/2/2 37/2/2 40/2/2
f 38/1/2 39/1/2 41/1/2
f 41/1/2 39/1/2 42/1/2
f 43/1/2 44/1/2 46/1/2
f 46/1/2 44/1/2 47/1/2
f 45/1/2 46/1/2 48/1/2
f 48/1/2 46/1/2 49/1/2
f 50/1/2 51/1/2 53/1/2
f 53/1/2 51/1/2 54/1/2
f 52/1/2 53/1/2 55/1/2
f 55/1/2 53/1/2 56/1/2
f 57/1/2 58/1/2 60/1/2
f 60/1/2 58/1/2 61/1/2
f 59/1/2 60/1/2 62/1/2
f 62/1/2 60/1/2 63/1/2
f 64/2/2 65/2/2 67/2/2
f 65/1/2 66/1/2 67/1/2
f 67/1/2 66/1/2 68/1/2
f 64/2/2 67/2/2 69/2/2
f 69/2/2 67/2/2 70/2/2
f 73/1/3 72/1/3 71/1/3
f 75/1/3 73/1/3 71/1/3
f 75/1/3 74/1/3 73/1/3
f 76/1/3 74/1/3 75/1/3
f 77/2/3 76/2/3 75/2/3
f 78/2/3 76/2/3 77/2/3
f 81/1/3 80/1/3 79/1/3
f 82/1/3 80/1/3 81/1/3
f 84/1/3 83/1/3 82/1/3
f 85/1/3 83/1/3 84/1/3
f 88/1/3 87/1/3 86/1/3
f 89/1/3 87/1/3 88/1/3
f 91/1/3 90/1/3 89/1/3
f 92/1/3 90/1/3 91/1/3
f 95/1/3 94/1/3 93/1/3
f 96/1/3 94/1/3 95/1/3
f 99/2/3 98/2/3 97/2/3
f 100/2/3 98/2/3 99/2/3
f 101/2/4 102/2/4 103/2/4
f 103/2/4 102/2/4 104/2/4
f 105/1/4 106/1/4 108/1/4
f 108/1/4 106/1/4 109/1/4
f 107/1/4 108/1/4 110/1/4
f 110/1/4 108/1/4 111/1/4
f 112/1/4 113/1/4 115/1/4
f 115/1/4 113/1/4 116/1/4
f 114/1/4 115/1/4 117/1/4
f 117/1/4 115/1/4 118/1/4
f 119/1/4 120/1/4 122/1/4
f 122/1/4 120/1/4 123/1/4
f 121/1/4 122/1/4 124/1/4
f 124/1/4 122/1/4 125/1/4
f 126/1/4 127/1/4 129/1/4
f 129/1/4 127/1/4 130/1/4
f 128/1/4 129/1/4 131/1/4
f 131/1/4 129/1/4 132/1/4
f 133/2/4 134/2/4 135/2/4
f 135/2/4 134/2/4 136/2/4
f 137/2/4 138/2/4 139/2/4
f 139/2/4 138/2/4 140/2/4
f 145/1/5 142/1/5 141/1/5
f 146/2/5 143/2/5 142/2/5
f 146/1/5 142/1/5 145/1/5
f 147/2/5 143/2/5 146/2/5
f 149/1/5 145/1/5 144/1/5
f 149/1/5 146/1/5 145/1/5
f 149/1/5 147/1/5 146/1/5
f 150/1/5 147/1/5 149/1/5
f 151/1/5 147/1/5 150/1/5
f 152/1/5 149/1/5 148/1/5
f 152/1/5 150/1/5 149/1/5
f 153/1/5 150/1/5 152/1/5
f 154/1/5 152/1/5 148/1/5
f 155/1/5 152/1/5 154/1/5
f 156/1/5 154/1/5 148/1/5
f 157/1/5 154/1/5 156/1/5
f 158/1/5 154/1/5 157/1/5
f 160/2/5 157/2/5 156/2/5
f 161/2/5 157/2/5 160/2/5
f 162/2/5 160/2/5 159/2/5
f 163/2/5 160/2/5 162/2/5
f 164/1/6 165/1/6 167/1/6
f 167/1/6 165/1/6 168/1/6
f 166/1/6 167/1/6 172/1/6
f 172/1/6 167/1/6 173/1/6
f 169/1/6 170/1/6 175/1/6
f 175/1/6 170/1/6 176/1/6
f 174/1/6 175/1/6 178/1/6
f 178/1/6 175/1/6 179/1/6
f 171/1/6 172/1/6 180/1/6
f 180/1/6 172/1/6 181/1/6
f 177/1/6 178/1/6 182/1/6
f 182/1/6 178/1/6 183/1/6
f 181/1/6 182/1/6 185/1/6
f 185/1/6 182/1/6 186/1/6
f 184/2/6 185/2/6 188/2/6
f 188/2/6 185/2/6 189/2/6
f 187/2/6 188/2/6 190/2/6
f 190/2/6 188/2/6 191/2/6
f 192/1/6 193/1/6 196/1/6
f 193/2/6 194/2/6 197/2/6
f 196/1/6 193/1/6 197/1/6
f 197/2/6 194/2/6 198/2/6
f 195/1/6 196/1/6 200/1/6
f 196/1/6 197/1/6 200/1/6
f 200/1/6 197/1/6 201/1/6
f 201/1/6 197/1/6 202/1/6
f 199/1/6 200/1/6 203/1/6
f 200/1/6 201/1/6 203/1/6
f 203/1/6 201/1/6 204/1/6
f 199/1/6 203/1/6 206/1/6
f 206/1/6 203/1/6 207/1/6
f 205/1/6 206/1/6 208/1/6
f 208/1/6 206/1/6 209/1/6
