# MagicaVoxel @ Ephtracy

# group
o 

# material
mtllib Banana.mtl
usemtl palette

# normals
vn -1 0 0
vn 1 0 0
vn 0 0 1
vn 0 0 -1
vn 0 -1 0
vn 0 1 0

# texcoords
vt 0.0214844 0.5
vt 0.994141 0.5

# verts
v 0 2 -0.1
v 0 2 -0.3
v 0 2.1 -0.1
v 0 2.1 -0.3
v 0.1 2.1 -0.2
v 0.1 2.1 -0.3
v 0.1 2.3 -0.1
v 0.1 2.3 -0.2
v 0.1 2.4 -0.2
v 0.1 2.4 -0.3
v 0.1 2.6 -0.1
v 0.1 2.6 -0.2
v 0.1 2.7 -0.1
v 0.1 2.7 -0.2
v 0.2 2 0
v 0.2 2 -0.2
v 0.2 2 -0.3
v 0.2 2 -0.5
v 0.2 2.1 0
v 0.2 2.1 -0.1
v 0.2 2.1 -0.4
v 0.2 2.1 -0.5
v 0.2 2.3 0
v 0.2 2.3 -0.1
v 0.2 2.3 -0.2
v 0.2 2.4 -0.2
v 0.2 2.4 -0.3
v 0.2 2.4 -0.4
v 0.2 2.6 0
v 0.2 2.6 -0.1
v 0.2 2.6 -0.2
v 0.2 2.6 -0.3
v 0.2 2.7 0
v 0.2 2.7 -0.1
v 0.2 2.7 -0.2
v 0.2 2.7 -0.3
v 0.2 2.8 -0.1
v 0.2 2.8 -0.2
v 0.1 2 -0.1
v 0.1 2 -0.2
v 0.1 2.1 -0.1
v 0.1 2.1 -0.2
v 0.3 2 0
v 0.3 2 -0.2
v 0.3 2 -0.3
v 0.3 2 -0.5
v 0.3 2.1 0
v 0.3 2.1 -0.1
v 0.3 2.1 -0.4
v 0.3 2.1 -0.5
v 0.3 2.3 0
v 0.3 2.3 -0.1
v 0.3 2.3 -0.2
v 0.3 2.4 -0.2
v 0.3 2.4 -0.3
v 0.3 2.4 -0.4
v 0.3 2.6 0
v 0.3 2.6 -0.1
v 0.3 2.6 -0.2
v 0.3 2.6 -0.3
v 0.3 2.7 0
v 0.3 2.7 -0.1
v 0.3 2.7 -0.2
v 0.3 2.7 -0.3
v 0.3 2.8 -0.1
v 0.3 2.8 -0.2
v 0.4 2.1 -0.2
v 0.4 2.1 -0.3
v 0.4 2.3 -0.1
v 0.4 2.3 -0.2
v 0.4 2.4 -0.2
v 0.4 2.4 -0.3
v 0.4 2.6 -0.1
v 0.4 2.6 -0.2
v 0.4 2.7 -0.1
v 0.4 2.7 -0.2
v 0.5 2 -0.2
v 0.5 2 -0.3
v 0.5 2.1 -0.2
v 0.5 2.1 -0.3
v 0.2 2 0
v 0.2 2.1 0
v 0.2 2.3 0
v 0.2 2.6 0
v 0.2 2.7 0
v 0.3 2 0
v 0.3 2.1 0
v 0.3 2.3 0
v 0.3 2.6 0
v 0.3 2.7 0
v 0 2 -0.1
v 0 2.1 -0.1
v 0.1 2 -0.1
v 0.1 2.1 -0.1
v 0.1 2.3 -0.1
v 0.1 2.6 -0.1
v 0.1 2.7 -0.1
v 0.2 2.1 -0.1
v 0.2 2.3 -0.1
v 0.2 2.6 -0.1
v 0.2 2.7 -0.1
v 0.2 2.8 -0.1
v 0.3 2.1 -0.1
v 0.3 2.3 -0.1
v 0.3 2.6 -0.1
v 0.3 2.7 -0.1
v 0.3 2.8 -0.1
v 0.4 2.3 -0.1
v 0.4 2.6 -0.1
v 0.4 2.7 -0.1
v 0.1 2 -0.2
v 0.1 2.1 -0.2
v 0.1 2.3 -0.2
v 0.2 2 -0.2
v 0.2 2.3 -0.2
v 0.3 2 -0.2
v 0.3 2.3 -0.2
v 0.4 2.1 -0.2
v 0.4 2.3 -0.2
v 0.5 2 -0.2
v 0.5 2.1 -0.2
v 0.1 2.4 -0.2
v 0.1 2.6 -0.2
v 0.1 2.7 -0.2
v 0.2 2.4 -0.2
v 0.2 2.6 -0.2
v 0.2 2.7 -0.2
v 0.2 2.8 -0.2
v 0.3 2.4 -0.2
v 0.3 2.6 -0.2
v 0.3 2.7 -0.2
v 0.3 2.8 -0.2
v 0.4 2.4 -0.2
v 0.4 2.6 -0.2
v 0.4 2.7 -0.2
v 0 2 -0.3
v 0 2.1 -0.3
v 0.1 2.1 -0.3
v 0.1 2.4 -0.3
v 0.2 2 -0.3
v 0.2 2.4 -0.3
v 0.2 2.6 -0.3
v 0.2 2.7 -0.3
v 0.3 2 -0.3
v 0.3 2.4 -0.3
v 0.3 2.6 -0.3
v 0.3 2.7 -0.3
v 0.4 2.1 -0.3
v 0.4 2.4 -0.3
v 0.5 2 -0.3
v 0.5 2.1 -0.3
v 0.2 2.1 -0.4
v 0.2 2.4 -0.4
v 0.3 2.1 -0.4
v 0.3 2.4 -0.4
v 0.2 2 -0.5
v 0.2 2.1 -0.5
v 0.3 2 -0.5
v 0.3 2.1 -0.5
v 0.2 2 0
v 0.3 2 0
v 0 2 -0.1
v 0.1 2 -0.1
v 0.1 2 -0.2
v 0.2 2 -0.2
v 0.3 2 -0.2
v 0.5 2 -0.2
v 0 2 -0.3
v 0.2 2 -0.3
v 0.3 2 -0.3
v 0.5 2 -0.3
v 0.2 2 -0.5
v 0.3 2 -0.5
v 0.2 2.3 0
v 0.3 2.3 0
v 0.1 2.3 -0.1
v 0.2 2.3 -0.1
v 0.3 2.3 -0.1
v 0.4 2.3 -0.1
v 0.1 2.3 -0.2
v 0.2 2.3 -0.2
v 0.3 2.3 -0.2
v 0.4 2.3 -0.2
v 0.2 2.1 0
v 0.3 2.1 0
v 0 2.1 -0.1
v 0.1 2.1 -0.1
v 0.2 2.1 -0.1
v 0.3 2.1 -0.1
v 0.1 2.1 -0.2
v 0.4 2.1 -0.2
v 0.5 2.1 -0.2
v 0 2.1 -0.3
v 0.1 2.1 -0.3
v 0.4 2.1 -0.3
v 0.5 2.1 -0.3
v 0.2 2.1 -0.4
v 0.3 2.1 -0.4
v 0.2 2.1 -0.5
v 0.3 2.1 -0.5
v 0.1 2.4 -0.2
v 0.2 2.4 -0.2
v 0.3 2.4 -0.2
v 0.4 2.4 -0.2
v 0.1 2.4 -0.3
v 0.2 2.4 -0.3
v 0.3 2.4 -0.3
v 0.4 2.4 -0.3
v 0.2 2.4 -0.4
v 0.3 2.4 -0.4
v 0.2 2.7 0
v 0.3 2.7 0
v 0.1 2.7 -0.1
v 0.2 2.7 -0.1
v 0.3 2.7 -0.1
v 0.4 2.7 -0.1
v 0.1 2.7 -0.2
v 0.2 2.7 -0.2
v 0.3 2.7 -0.2
v 0.4 2.7 -0.2
v 0.2 2.7 -0.3
v 0.3 2.7 -0.3
v 0.2 2.8 -0.1
v 0.3 2.8 -0.1
v 0.2 2.8 -0.2
v 0.3 2.8 -0.2

# faces
f 3/1/1 2/1/1 1/1/1
f 4/1/1 2/1/1 3/1/1
f 8/1/1 6/1/1 5/1/1
f 9/1/1 6/1/1 8/1/1
f 9/1/1 8/1/1 7/1/1
f 10/1/1 6/1/1 9/1/1
f 11/1/1 9/1/1 7/1/1
f 12/1/1 9/1/1 11/1/1
f 13/2/1 12/2/1 11/2/1
f 14/2/1 12/2/1 13/2/1
f 19/1/1 16/1/1 15/1/1
f 20/1/1 16/1/1 19/1/1
f 21/1/1 18/1/1 17/1/1
f 22/1/1 18/1/1 21/1/1
f 24/1/1 16/1/1 20/1/1
f 25/1/1 16/1/1 24/1/1
f 27/1/1 21/1/1 17/1/1
f 28/1/1 21/1/1 27/1/1
f 29/1/1 24/1/1 23/1/1
f 30/1/1 24/1/1 29/1/1
f 31/1/1 27/1/1 26/1/1
f 32/1/1 27/1/1 31/1/1
f 33/2/1 30/2/1 29/2/1
f 34/2/1 30/2/1 33/2/1
f 35/2/1 32/2/1 31/2/1
f 36/2/1 32/2/1 35/2/1
f 37/2/1 35/2/1 34/2/1
f 38/2/1 35/2/1 37/2/1
f 39/1/2 40/1/2 41/1/2
f 41/1/2 40/1/2 42/1/2
f 43/1/2 44/1/2 47/1/2
f 47/1/2 44/1/2 48/1/2
f 45/1/2 46/1/2 49/1/2
f 49/1/2 46/1/2 50/1/2
f 48/1/2 44/1/2 52/1/2
f 52/1/2 44/1/2 53/1/2
f 45/1/2 49/1/2 55/1/2
f 55/1/2 49/1/2 56/1/2
f 51/1/2 52/1/2 57/1/2
f 57/1/2 52/1/2 58/1/2
f 54/1/2 55/1/2 59/1/2
f 59/1/2 55/1/2 60/1/2
f 57/2/2 58/2/2 61/2/2
f 61/2/2 58/2/2 62/2/2
f 59/2/2 60/2/2 63/2/2
f 63/2/2 60/2/2 64/2/2
f 62/2/2 63/2/2 65/2/2
f 65/2/2 63/2/2 66/2/2
f 67/1/2 68/1/2 70/1/2
f 70/1/2 68/1/2 71/1/2
f 69/1/2 70/1/2 71/1/2
f 71/1/2 68/1/2 72/1/2
f 69/1/2 71/1/2 73/1/2
f 73/1/2 71/1/2 74/1/2
f 73/2/2 74/2/2 75/2/2
f 75/2/2 74/2/2 76/2/2
f 77/1/2 78/1/2 79/1/2
f 79/1/2 78/1/2 80/1/2
f 86/1/3 82/1/3 81/1/3
f 87/1/3 82/1/3 86/1/3
f 88/1/3 84/1/3 83/1/3
f 89/2/3 85/2/3 84/2/3
f 89/1/3 84/1/3 88/1/3
f 90/2/3 85/2/3 89/2/3
f 93/1/3 92/1/3 91/1/3
f 94/1/3 92/1/3 93/1/3
f 99/1/3 96/1/3 95/1/3
f 100/2/3 97/2/3 96/2/3
f 100/1/3 96/1/3 99/1/3
f 101/2/3 97/2/3 100/2/3
f 103/1/3 99/1/3 98/1/3
f 104/1/3 99/1/3 103/1/3
f 106/2/3 102/2/3 101/2/3
f 107/2/3 102/2/3 106/2/3
f 108/1/3 105/1/3 104/1/3
f 109/2/3 106/2/3 105/2/3
f 109/1/3 105/1/3 108/1/3
f 110/2/3 106/2/3 109/2/3
f 114/1/3 112/1/3 111/1/3
f 114/1/3 113/1/3 112/1/3
f 115/1/3 113/1/3 114/1/3
f 118/1/3 117/1/3 116/1/3
f 119/1/3 117/1/3 118/1/3
f 120/1/3 118/1/3 116/1/3
f 121/1/3 118/1/3 120/1/3
f 122/1/4 123/1/4 125/1/4
f 123/2/4 124/2/4 126/2/4
f 125/1/4 123/1/4 126/1/4
f 126/2/4 124/2/4 127/2/4
f 127/2/4 128/2/4 131/2/4
f 131/2/4 128/2/4 132/2/4
f 129/1/4 130/1/4 133/1/4
f 130/2/4 131/2/4 134/2/4
f 133/1/4 130/1/4 134/1/4
f 134/2/4 131/2/4 135/2/4
f 136/1/4 137/1/4 138/1/4
f 136/1/4 138/1/4 140/1/4
f 138/1/4 139/1/4 140/1/4
f 140/1/4 139/1/4 141/1/4
f 141/1/4 142/1/4 145/1/4
f 142/2/4 143/2/4 146/2/4
f 145/1/4 142/1/4 146/1/4
f 146/2/4 143/2/4 147/2/4
f 144/1/4 145/1/4 148/1/4
f 148/1/4 145/1/4 149/1/4
f 144/1/4 148/1/4 150/1/4
f 150/1/4 148/1/4 151/1/4
f 152/1/4 153/1/4 154/1/4
f 154/1/4 153/1/4 155/1/4
f 156/1/4 157/1/4 158/1/4
f 158/1/4 157/1/4 159/1/4
f 164/1/5 163/1/5 162/1/5
f 165/1/5 161/1/5 160/1/5
f 166/1/5 161/1/5 165/1/5
f 168/1/5 164/1/5 162/1/5
f 168/1/5 167/1/5 166/1/5
f 168/1/5 166/1/5 165/1/5
f 168/1/5 165/1/5 164/1/5
f 169/1/5 167/1/5 168/1/5
f 170/1/5 167/1/5 169/1/5
f 171/1/5 167/1/5 170/1/5
f 172/1/5 170/1/5 169/1/5
f 173/1/5 170/1/5 172/1/5
f 177/1/5 175/1/5 174/1/5
f 178/1/5 175/1/5 177/1/5
f 180/1/5 177/1/5 176/1/5
f 181/1/5 177/1/5 180/1/5
f 182/1/5 179/1/5 178/1/5
f 183/1/5 179/1/5 182/1/5
f 184/1/6 185/1/6 188/1/6
f 188/1/6 185/1/6 189/1/6
f 186/1/6 187/1/6 190/1/6
f 186/1/6 190/1/6 193/1/6
f 193/1/6 190/1/6 194/1/6
f 191/1/6 192/1/6 195/1/6
f 195/1/6 192/1/6 196/1/6
f 197/1/6 198/1/6 199/1/6
f 199/1/6 198/1/6 200/1/6
f 201/1/6 202/1/6 205/1/6
f 205/1/6 202/1/6 206/1/6
f 203/1/6 204/1/6 207/1/6
f 207/1/6 204/1/6 208/1/6
f 206/1/6 207/1/6 209/1/6
f 209/1/6 207/1/6 210/1/6
f 211/2/6 212/2/6 214/2/6
f 214/2/6 212/2/6 215/2/6
f 213/2/6 214/2/6 217/2/6
f 217/2/6 214/2/6 218/2/6
f 215/2/6 216/2/6 219/2/6
f 219/2/6 216/2/6 220/2/6
f 218/2/6 219/2/6 221/2/6
f 221/2/6 219/2/6 222/2/6
f 223/2/6 224/2/6 225/2/6
f 225/2/6 224/2/6 226/2/6
