# MagicaVoxel @ Ephtracy

# group
o 

# material
mtllib Cvetochki.mtl
usemtl palette

# normals
vn -1 0 0
vn 1 0 0
vn 0 0 1
vn 0 0 -1
vn 0 -1 0
vn 0 1 0

# texcoords
vt 0.119141 0.5
vt 0.404297 0.5
vt 0.583984 0.5
vt 0.755859 0.5
vt 0.884766 0.5
vt 0.888672 0.5
vt 0.958984 0.5

# verts
v 0 2 0
v 0 2 -0.1
v 0 2 -0.5
v 0 2 -0.6
v 0 2 -0.8
v 0 2.1 0
v 0 2.1 -0.1
v 0 2.1 -0.5
v 0 2.1 -0.6
v 0 2.1 -0.8
v 0.1 2.1 -0.6
v 0.1 2.1 -0.7
v 0.1 2.2 -0.6
v 0.1 2.2 -0.7
v 0.1 2.3 -0.6
v 0.1 2.3 -0.7
v 0.1 2.4 -0.6
v 0.1 2.4 -0.7
v 0.2 2.1 -0.2
v 0.2 2.1 -0.3
v 0.2 2.2 -0.2
v 0.2 2.2 -0.3
v 0.2 2.2 -0.6
v 0.2 2.2 -0.7
v 0.2 2.3 -0.1
v 0.2 2.3 -0.2
v 0.2 2.3 -0.5
v 0.2 2.3 -0.6
v 0.2 2.3 -0.7
v 0.2 2.3 -0.8
v 0.2 2.4 -0.1
v 0.2 2.4 -0.2
v 0.2 2.4 -0.5
v 0.2 2.4 -0.6
v 0.2 2.4 -0.7
v 0.2 2.4 -0.8
v 0.3 2.2 -0.1
v 0.3 2.2 -0.2
v 0.3 2.3 0
v 0.3 2.3 -0.1
v 0.3 2.3 -0.2
v 0.3 2.3 -0.3
v 0.3 2.4 0
v 0.3 2.4 -0.1
v 0.3 2.4 -0.2
v 0.3 2.4 -0.3
v 0.5 2.3 -0.4
v 0.5 2.3 -0.5
v 0.5 2.4 -0.4
v 0.5 2.4 -0.5
v 0.6 2.1 -0.5
v 0.6 2.1 -0.6
v 0.6 2.2 -0.4
v 0.6 2.2 -0.5
v 0.6 2.2 -0.6
v 0.6 2.3 -0.3
v 0.6 2.3 -0.4
v 0.6 2.3 -0.5
v 0.6 2.3 -0.6
v 0.6 2.4 -0.3
v 0.6 2.4 -0.4
v 0.6 2.4 -0.5
v 0.6 2.4 -0.6
v 0.2 2.1 -0.6
v 0.2 2.1 -0.7
v 0.2 2.2 -0.6
v 0.2 2.2 -0.7
v 0.3 2.1 -0.2
v 0.3 2.1 -0.3
v 0.3 2.2 -0.2
v 0.3 2.2 -0.3
v 0.3 2.2 -0.6
v 0.3 2.2 -0.7
v 0.3 2.3 -0.5
v 0.3 2.3 -0.6
v 0.3 2.3 -0.7
v 0.3 2.3 -0.8
v 0.3 2.4 -0.5
v 0.3 2.4 -0.6
v 0.3 2.4 -0.7
v 0.3 2.4 -0.8
v 0.4 2.2 -0.1
v 0.4 2.2 -0.2
v 0.4 2.3 0
v 0.4 2.3 -0.1
v 0.4 2.3 -0.2
v 0.4 2.3 -0.3
v 0.4 2.3 -0.6
v 0.4 2.3 -0.7
v 0.4 2.4 0
v 0.4 2.4 -0.1
v 0.4 2.4 -0.2
v 0.4 2.4 -0.3
v 0.4 2.4 -0.6
v 0.4 2.4 -0.7
v 0.5 2.3 -0.1
v 0.5 2.3 -0.2
v 0.5 2.4 -0.1
v 0.5 2.4 -0.2
v 0.7 2.1 -0.5
v 0.7 2.1 -0.6
v 0.7 2.2 -0.4
v 0.7 2.2 -0.5
v 0.7 2.2 -0.6
v 0.7 2.3 -0.3
v 0.7 2.3 -0.4
v 0.7 2.3 -0.5
v 0.7 2.3 -0.6
v 0.7 2.4 -0.3
v 0.7 2.4 -0.4
v 0.7 2.4 -0.5
v 0.7 2.4 -0.6
v 0.8 2 0
v 0.8 2 -0.2
v 0.8 2 -0.3
v 0.8 2 -0.5
v 0.8 2 -0.6
v 0.8 2 -0.8
v 0.8 2.1 0
v 0.8 2.1 -0.2
v 0.8 2.1 -0.3
v 0.8 2.1 -0.5
v 0.8 2.1 -0.6
v 0.8 2.1 -0.8
v 0.8 2.3 -0.4
v 0.8 2.3 -0.5
v 0.8 2.4 -0.4
v 0.8 2.4 -0.5
v 0 2 0
v 0 2.1 0
v 0.1 2 0
v 0.1 2.1 0
v 0.3 2 0
v 0.3 2.1 0
v 0.3 2.3 0
v 0.3 2.4 0
v 0.4 2 0
v 0.4 2.1 0
v 0.4 2.3 0
v 0.4 2.4 0
v 0.6 2 0
v 0.6 2.1 0
v 0.7 2 0
v 0.7 2.1 0
v 0.8 2 0
v 0.8 2.1 0
v 0.2 2.3 -0.1
v 0.2 2.4 -0.1
v 0.3 2.2 -0.1
v 0.3 2.3 -0.1
v 0.3 2.4 -0.1
v 0.4 2.2 -0.1
v 0.4 2.3 -0.1
v 0.4 2.4 -0.1
v 0.5 2.3 -0.1
v 0.5 2.4 -0.1
v 0.2 2.1 -0.2
v 0.2 2.2 -0.2
v 0.3 2.1 -0.2
v 0.3 2.2 -0.2
v 0.6 2.3 -0.3
v 0.6 2.4 -0.3
v 0.7 2.3 -0.3
v 0.7 2.4 -0.3
v 0.5 2.3 -0.4
v 0.5 2.4 -0.4
v 0.6 2.2 -0.4
v 0.6 2.3 -0.4
v 0.6 2.4 -0.4
v 0.7 2.2 -0.4
v 0.7 2.3 -0.4
v 0.7 2.4 -0.4
v 0.8 2.3 -0.4
v 0.8 2.4 -0.4
v 0.2 2.3 -0.5
v 0.2 2.4 -0.5
v 0.3 2.3 -0.5
v 0.3 2.4 -0.5
v 0.6 2.1 -0.5
v 0.6 2.2 -0.5
v 0.7 2.1 -0.5
v 0.7 2.2 -0.5
v 0.1 2.1 -0.6
v 0.1 2.2 -0.6
v 0.1 2.3 -0.6
v 0.1 2.4 -0.6
v 0.2 2.1 -0.6
v 0.2 2.2 -0.6
v 0.2 2.3 -0.6
v 0.2 2.4 -0.6
v 0.3 2.2 -0.6
v 0.3 2.3 -0.6
v 0.3 2.4 -0.6
v 0.4 2.3 -0.6
v 0.4 2.4 -0.6
v 0.2 2.3 -0.2
v 0.2 2.4 -0.2
v 0.3 2.2 -0.2
v 0.3 2.3 -0.2
v 0.3 2.4 -0.2
v 0.4 2.2 -0.2
v 0.4 2.3 -0.2
v 0.4 2.4 -0.2
v 0.5 2.3 -0.2
v 0.5 2.4 -0.2
v 0.2 2.1 -0.3
v 0.2 2.2 -0.3
v 0.3 2.1 -0.3
v 0.3 2.2 -0.3
v 0.3 2.3 -0.3
v 0.3 2.4 -0.3
v 0.4 2.3 -0.3
v 0.4 2.4 -0.3
v 0.5 2.3 -0.5
v 0.5 2.4 -0.5
v 0.6 2.2 -0.5
v 0.6 2.3 -0.5
v 0.6 2.4 -0.5
v 0.7 2.2 -0.5
v 0.7 2.3 -0.5
v 0.7 2.4 -0.5
v 0.8 2.3 -0.5
v 0.8 2.4 -0.5
v 0.6 2.1 -0.6
v 0.6 2.2 -0.6
v 0.6 2.3 -0.6
v 0.6 2.4 -0.6
v 0.7 2.1 -0.6
v 0.7 2.2 -0.6
v 0.7 2.3 -0.6
v 0.7 2.4 -0.6
v 0.1 2.1 -0.7
v 0.1 2.2 -0.7
v 0.1 2.3 -0.7
v 0.1 2.4 -0.7
v 0.2 2.1 -0.7
v 0.2 2.2 -0.7
v 0.2 2.3 -0.7
v 0.2 2.4 -0.7
v 0.3 2.2 -0.7
v 0.3 2.3 -0.7
v 0.3 2.4 -0.7
v 0.4 2.3 -0.7
v 0.4 2.4 -0.7
v 0 2 -0.8
v 0 2.1 -0.8
v 0.1 2 -0.8
v 0.1 2.1 -0.8
v 0.2 2 -0.8
v 0.2 2.1 -0.8
v 0.2 2.3 -0.8
v 0.2 2.4 -0.8
v 0.3 2.3 -0.8
v 0.3 2.4 -0.8
v 0.6 2 -0.8
v 0.6 2.1 -0.8
v 0.7 2 -0.8
v 0.7 2.1 -0.8
v 0.8 2 -0.8
v 0.8 2.1 -0.8
v 0 2 0
v 0.1 2 0
v 0.3 2 0
v 0.4 2 0
v 0.6 2 0
v 0.7 2 0
v 0.8 2 0
v 0 2 -0.1
v 0.1 2 -0.1
v 0.2 2 -0.1
v 0.3 2 -0.1
v 0.4 2 -0.1
v 0.6 2 -0.1
v 0.7 2 -0.1
v 0.1 2 -0.2
v 0.2 2 -0.2
v 0.4 2 -0.2
v 0.5 2 -0.2
v 0.7 2 -0.2
v 0.8 2 -0.2
v 0.3 2 -0.3
v 0.4 2 -0.3
v 0.5 2 -0.3
v 0.6 2 -0.3
v 0.7 2 -0.3
v 0.8 2 -0.3
v 0.1 2 -0.4
v 0.2 2 -0.4
v 0.3 2 -0.4
v 0.4 2 -0.4
v 0.6 2 -0.4
v 0.7 2 -0.4
v 0 2 -0.5
v 0.1 2 -0.5
v 0.2 2 -0.5
v 0.5 2 -0.5
v 0.6 2 -0.5
v 0.7 2 -0.5
v 0.8 2 -0.5
v 0 2 -0.6
v 0.1 2 -0.6
v 0.3 2 -0.6
v 0.4 2 -0.6
v 0.7 2 -0.6
v 0.8 2 -0.6
v 0.1 2 -0.7
v 0.2 2 -0.7
v 0.3 2 -0.7
v 0.4 2 -0.7
v 0.5 2 -0.7
v 0.6 2 -0.7
v 0.7 2 -0.7
v 0 2 -0.8
v 0.1 2 -0.8
v 0.2 2 -0.8
v 0.6 2 -0.8
v 0.7 2 -0.8
v 0.8 2 -0.8
v 0.3 2.2 -0.1
v 0.4 2.2 -0.1
v 0.3 2.2 -0.2
v 0.4 2.2 -0.2
v 0.6 2.2 -0.4
v 0.7 2.2 -0.4
v 0.6 2.2 -0.5
v 0.7 2.2 -0.5
v 0.2 2.2 -0.6
v 0.3 2.2 -0.6
v 0.2 2.2 -0.7
v 0.3 2.2 -0.7
v 0.3 2.3 0
v 0.4 2.3 0
v 0.2 2.3 -0.1
v 0.3 2.3 -0.1
v 0.4 2.3 -0.1
v 0.5 2.3 -0.1
v 0.2 2.3 -0.2
v 0.3 2.3 -0.2
v 0.4 2.3 -0.2
v 0.5 2.3 -0.2
v 0.3 2.3 -0.3
v 0.4 2.3 -0.3
v 0.6 2.3 -0.3
v 0.7 2.3 -0.3
v 0.5 2.3 -0.4
v 0.6 2.3 -0.4
v 0.7 2.3 -0.4
v 0.8 2.3 -0.4
v 0.2 2.3 -0.5
v 0.3 2.3 -0.5
v 0.5 2.3 -0.5
v 0.6 2.3 -0.5
v 0.7 2.3 -0.5
v 0.8 2.3 -0.5
v 0.1 2.3 -0.6
v 0.2 2.3 -0.6
v 0.3 2.3 -0.6
v 0.4 2.3 -0.6
v 0.6 2.3 -0.6
v 0.7 2.3 -0.6
v 0.1 2.3 -0.7
v 0.2 2.3 -0.7
v 0.3 2.3 -0.7
v 0.4 2.3 -0.7
v 0.2 2.3 -0.8
v 0.3 2.3 -0.8
v 0 2.1 0
v 0.1 2.1 0
v 0.3 2.1 0
v 0.4 2.1 0
v 0.6 2.1 0
v 0.7 2.1 0
v 0.8 2.1 0
v 0 2.1 -0.1
v 0.1 2.1 -0.1
v 0.2 2.1 -0.1
v 0.3 2.1 -0.1
v 0.4 2.1 -0.1
v 0.6 2.1 -0.1
v 0.7 2.1 -0.1
v 0.1 2.1 -0.2
v 0.2 2.1 -0.2
v 0.3 2.1 -0.2
v 0.4 2.1 -0.2
v 0.5 2.1 -0.2
v 0.7 2.1 -0.2
v 0.8 2.1 -0.2
v 0.2 2.1 -0.3
v 0.3 2.1 -0.3
v 0.4 2.1 -0.3
v 0.5 2.1 -0.3
v 0.6 2.1 -0.3
v 0.7 2.1 -0.3
v 0.8 2.1 -0.3
v 0.1 2.1 -0.4
v 0.2 2.1 -0.4
v 0.3 2.1 -0.4
v 0.4 2.1 -0.4
v 0.6 2.1 -0.4
v 0.7 2.1 -0.4
v 0 2.1 -0.5
v 0.1 2.1 -0.5
v 0.2 2.1 -0.5
v 0.5 2.1 -0.5
v 0.6 2.1 -0.5
v 0.7 2.1 -0.5
v 0.8 2.1 -0.5
v 0 2.1 -0.6
v 0.1 2.1 -0.6
v 0.2 2.1 -0.6
v 0.3 2.1 -0.6
v 0.4 2.1 -0.6
v 0.6 2.1 -0.6
v 0.7 2.1 -0.6
v 0.8 2.1 -0.6
v 0.1 2.1 -0.7
v 0.2 2.1 -0.7
v 0.3 2.1 -0.7
v 0.4 2.1 -0.7
v 0.5 2.1 -0.7
v 0.6 2.1 -0.7
v 0.7 2.1 -0.7
v 0 2.1 -0.8
v 0.1 2.1 -0.8
v 0.2 2.1 -0.8
v 0.6 2.1 -0.8
v 0.7 2.1 -0.8
v 0.8 2.1 -0.8
v 0.2 2.2 -0.2
v 0.3 2.2 -0.2
v 0.2 2.2 -0.3
v 0.3 2.2 -0.3
v 0.6 2.2 -0.5
v 0.7 2.2 -0.5
v 0.1 2.2 -0.6
v 0.2 2.2 -0.6
v 0.6 2.2 -0.6
v 0.7 2.2 -0.6
v 0.1 2.2 -0.7
v 0.2 2.2 -0.7
v 0.3 2.4 0
v 0.4 2.4 0
v 0.2 2.4 -0.1
v 0.3 2.4 -0.1
v 0.4 2.4 -0.1
v 0.5 2.4 -0.1
v 0.2 2.4 -0.2
v 0.3 2.4 -0.2
v 0.4 2.4 -0.2
v 0.5 2.4 -0.2
v 0.3 2.4 -0.3
v 0.4 2.4 -0.3
v 0.6 2.4 -0.3
v 0.7 2.4 -0.3
v 0.5 2.4 -0.4
v 0.6 2.4 -0.4
v 0.7 2.4 -0.4
v 0.8 2.4 -0.4
v 0.2 2.4 -0.5
v 0.3 2.4 -0.5
v 0.5 2.4 -0.5
v 0.6 2.4 -0.5
v 0.7 2.4 -0.5
v 0.8 2.4 -0.5
v 0.1 2.4 -0.6
v 0.2 2.4 -0.6
v 0.3 2.4 -0.6
v 0.4 2.4 -0.6
v 0.6 2.4 -0.6
v 0.7 2.4 -0.6
v 0.1 2.4 -0.7
v 0.2 2.4 -0.7
v 0.3 2.4 -0.7
v 0.4 2.4 -0.7
v 0.2 2.4 -0.8
v 0.3 2.4 -0.8

# faces
f 6/5/1 2/5/1 1/5/1
f 7/6/1 3/6/1 2/6/1
f 7/5/1 2/5/1 6/5/1
f 8/5/1 4/5/1 3/5/1
f 8/6/1 3/6/1 7/6/1
f 9/6/1 5/6/1 4/6/1
f 9/5/1 4/5/1 8/5/1
f 10/6/1 5/6/1 9/6/1
f 13/3/1 12/3/1 11/3/1
f 14/3/1 12/3/1 13/3/1
f 17/4/1 16/4/1 15/4/1
f 18/4/1 16/4/1 17/4/1
f 21/3/1 20/3/1 19/3/1
f 22/3/1 20/3/1 21/3/1
f 28/3/1 24/3/1 23/3/1
f 29/3/1 24/3/1 28/3/1
f 31/1/1 26/1/1 25/1/1
f 32/1/1 26/1/1 31/1/1
f 33/4/1 28/4/1 27/4/1
f 34/4/1 28/4/1 33/4/1
f 35/4/1 30/4/1 29/4/1
f 36/4/1 30/4/1 35/4/1
f 40/3/1 38/3/1 37/3/1
f 41/3/1 38/3/1 40/3/1
f 43/1/1 40/1/1 39/1/1
f 44/1/1 40/1/1 43/1/1
f 45/1/1 42/1/1 41/1/1
f 46/1/1 42/1/1 45/1/1
f 49/2/1 48/2/1 47/2/1
f 50/2/1 48/2/1 49/2/1
f 54/3/1 52/3/1 51/3/1
f 55/3/1 52/3/1 54/3/1
f 57/3/1 54/3/1 53/3/1
f 58/3/1 54/3/1 57/3/1
f 60/2/1 57/2/1 56/2/1
f 61/2/1 57/2/1 60/2/1
f 62/2/1 59/2/1 58/2/1
f 63/2/1 59/2/1 62/2/1
f 64/3/2 65/3/2 66/3/2
f 66/3/2 65/3/2 67/3/2
f 68/3/2 69/3/2 70/3/2
f 70/3/2 69/3/2 71/3/2
f 72/3/2 73/3/2 75/3/2
f 75/3/2 73/3/2 76/3/2
f 74/4/2 75/4/2 78/4/2
f 78/4/2 75/4/2 79/4/2
f 76/4/2 77/4/2 80/4/2
f 80/4/2 77/4/2 81/4/2
f 82/3/2 83/3/2 85/3/2
f 85/3/2 83/3/2 86/3/2
f 84/1/2 85/1/2 90/1/2
f 90/1/2 85/1/2 91/1/2
f 86/1/2 87/1/2 92/1/2
f 92/1/2 87/1/2 93/1/2
f 88/4/2 89/4/2 94/4/2
f 94/4/2 89/4/2 95/4/2
f 96/1/2 97/1/2 98/1/2
f 98/1/2 97/1/2 99/1/2
f 100/3/2 101/3/2 103/3/2
f 103/3/2 101/3/2 104/3/2
f 102/3/2 103/3/2 106/3/2
f 106/3/2 103/3/2 107/3/2
f 105/2/2 106/2/2 109/2/2
f 109/2/2 106/2/2 110/2/2
f 107/2/2 108/2/2 111/2/2
f 111/2/2 108/2/2 112/2/2
f 113/6/2 114/6/2 119/6/2
f 114/5/2 115/5/2 120/5/2
f 119/6/2 114/6/2 120/6/2
f 115/6/2 116/6/2 121/6/2
f 120/5/2 115/5/2 121/5/2
f 116/5/2 117/5/2 122/5/2
f 121/6/2 116/6/2 122/6/2
f 117/6/2 118/6/2 123/6/2
f 122/5/2 117/5/2 123/5/2
f 123/6/2 118/6/2 124/6/2
f 125/2/2 126/2/2 127/2/2
f 127/2/2 126/2/2 128/2/2
f 131/5/3 130/5/3 129/5/3
f 132/5/3 130/5/3 131/5/3
f 133/6/3 132/6/3 131/6/3
f 134/6/3 132/6/3 133/6/3
f 137/5/3 134/5/3 133/5/3
f 138/5/3 134/5/3 137/5/3
f 139/1/3 136/1/3 135/1/3
f 140/1/3 136/1/3 139/1/3
f 141/6/3 138/6/3 137/6/3
f 142/6/3 138/6/3 141/6/3
f 143/5/3 142/5/3 141/5/3
f 144/5/3 142/5/3 143/5/3
f 145/6/3 144/6/3 143/6/3
f 146/6/3 144/6/3 145/6/3
f 150/1/3 148/1/3 147/1/3
f 151/1/3 148/1/3 150/1/3
f 152/3/3 150/3/3 149/3/3
f 153/3/3 150/3/3 152/3/3
f 155/1/3 154/1/3 153/1/3
f 156/1/3 154/1/3 155/1/3
f 159/3/3 158/3/3 157/3/3
f 160/3/3 158/3/3 159/3/3
f 163/2/3 162/2/3 161/2/3
f 164/2/3 162/2/3 163/2/3
f 168/2/3 166/2/3 165/2/3
f 169/2/3 166/2/3 168/2/3
f 170/3/3 168/3/3 167/3/3
f 171/3/3 168/3/3 170/3/3
f 173/2/3 172/2/3 171/2/3
f 174/2/3 172/2/3 173/2/3
f 177/4/3 176/4/3 175/4/3
f 178/4/3 176/4/3 177/4/3
f 181/3/3 180/3/3 179/3/3
f 182/3/3 180/3/3 181/3/3
f 187/3/3 184/3/3 183/3/3
f 188/3/3 184/3/3 187/3/3
f 189/4/3 186/4/3 185/4/3
f 190/4/3 186/4/3 189/4/3
f 191/3/3 189/3/3 188/3/3
f 192/3/3 189/3/3 191/3/3
f 194/4/3 193/4/3 192/4/3
f 195/4/3 193/4/3 194/4/3
f 196/1/4 197/1/4 199/1/4
f 199/1/4 197/1/4 200/1/4
f 198/3/4 199/3/4 201/3/4
f 201/3/4 199/3/4 202/3/4
f 202/1/4 203/1/4 204/1/4
f 204/1/4 203/1/4 205/1/4
f 206/3/4 207/3/4 208/3/4
f 208/3/4 207/3/4 209/3/4
f 210/1/4 211/1/4 212/1/4
f 212/1/4 211/1/4 213/1/4
f 214/2/4 215/2/4 217/2/4
f 217/2/4 215/2/4 218/2/4
f 216/3/4 217/3/4 219/3/4
f 219/3/4 217/3/4 220/3/4
f 220/2/4 221/2/4 222/2/4
f 222/2/4 221/2/4 223/2/4
f 224/3/4 225/3/4 228/3/4
f 228/3/4 225/3/4 229/3/4
f 226/2/4 227/2/4 230/2/4
f 230/2/4 227/2/4 231/2/4
f 232/3/4 233/3/4 236/3/4
f 236/3/4 233/3/4 237/3/4
f 234/4/4 235/4/4 238/4/4
f 238/4/4 235/4/4 239/4/4
f 237/3/4 238/3/4 240/3/4
f 240/3/4 238/3/4 241/3/4
f 241/4/4 242/4/4 243/4/4
f 243/4/4 242/4/4 244/4/4
f 245/6/4 246/6/4 247/6/4
f 247/6/4 246/6/4 248/6/4
f 247/5/4 248/5/4 249/5/4
f 249/5/4 248/5/4 250/5/4
f 251/4/4 252/4/4 253/4/4
f 253/4/4 252/4/4 254/4/4
f 249/6/4 250/6/4 255/6/4
f 255/6/4 250/6/4 256/6/4
f 255/5/4 256/5/4 257/5/4
f 257/5/4 256/5/4 258/5/4
f 257/6/4 258/6/4 259/6/4
f 259/6/4 258/6/4 260/6/4
f 268/5/5 262/5/5 261/5/5
f 269/6/5 263/6/5 262/6/5
f 269/5/5 262/5/5 268/5/5
f 270/6/5 263/6/5 269/6/5
f 271/5/5 264/5/5 263/5/5
f 271/6/5 263/6/5 270/6/5
f 272/6/5 265/6/5 264/6/5
f 272/5/5 264/5/5 271/5/5
f 273/5/5 266/5/5 265/5/5
f 273/6/5 265/6/5 272/6/5
f 274/6/5 267/6/5 266/6/5
f 274/5/5 266/5/5 273/5/5
f 275/5/5 270/5/5 269/5/5
f 275/6/5 269/6/5 268/6/5
f 276/6/5 273/6/5 272/6/5
f 276/5/5 270/5/5 275/5/5
f 276/6/5 271/6/5 270/6/5
f 276/6/5 274/6/5 273/6/5
f 276/6/5 272/6/5 271/6/5
f 277/6/5 274/6/5 276/6/5
f 278/6/5 274/6/5 277/6/5
f 279/6/5 267/6/5 274/6/5
f 279/6/5 274/6/5 278/6/5
f 280/6/5 267/6/5 279/6/5
f 281/6/5 276/6/5 275/6/5
f 281/6/5 277/6/5 276/6/5
f 282/5/5 278/5/5 277/5/5
f 282/6/5 277/6/5 281/6/5
f 283/6/5 279/6/5 278/6/5
f 283/5/5 278/5/5 282/5/5
f 284/6/5 279/6/5 283/6/5
f 285/5/5 280/5/5 279/5/5
f 285/6/5 279/6/5 284/6/5
f 286/5/5 280/5/5 285/5/5
f 287/6/5 275/6/5 268/6/5
f 287/6/5 281/6/5 275/6/5
f 288/6/5 281/6/5 287/6/5
f 289/5/5 282/5/5 281/5/5
f 289/6/5 281/6/5 288/6/5
f 290/6/5 284/6/5 283/6/5
f 290/5/5 282/5/5 289/5/5
f 290/6/5 283/6/5 282/6/5
f 291/5/5 285/5/5 284/5/5
f 291/6/5 284/6/5 290/6/5
f 292/6/5 286/6/5 285/6/5
f 292/5/5 285/5/5 291/5/5
f 293/6/5 287/6/5 268/6/5
f 294/5/5 288/5/5 287/5/5
f 294/6/5 287/6/5 293/6/5
f 295/6/5 291/6/5 290/6/5
f 295/5/5 288/5/5 294/5/5
f 295/6/5 289/6/5 288/6/5
f 295/6/5 292/6/5 291/6/5
f 295/6/5 290/6/5 289/6/5
f 296/6/5 292/6/5 295/6/5
f 297/6/5 292/6/5 296/6/5
f 298/6/5 286/6/5 292/6/5
f 298/6/5 292/6/5 297/6/5
f 299/6/5 286/6/5 298/6/5
f 300/5/5 294/5/5 293/5/5
f 301/6/5 295/6/5 294/6/5
f 301/5/5 294/5/5 300/5/5
f 301/6/5 296/6/5 295/6/5
f 302/6/5 296/6/5 301/6/5
f 303/6/5 296/6/5 302/6/5
f 304/5/5 299/5/5 298/5/5
f 304/6/5 298/6/5 297/6/5
f 305/5/5 299/5/5 304/5/5
f 306/6/5 301/6/5 300/6/5
f 306/6/5 302/6/5 301/6/5
f 307/6/5 302/6/5 306/6/5
f 308/5/5 303/5/5 302/5/5
f 308/6/5 302/6/5 307/6/5
f 309/6/5 296/6/5 303/6/5
f 309/5/5 303/5/5 308/5/5
f 310/5/5 297/5/5 296/5/5
f 310/6/5 296/6/5 309/6/5
f 311/6/5 305/6/5 304/6/5
f 311/5/5 297/5/5 310/5/5
f 311/6/5 304/6/5 297/6/5
f 312/6/5 305/6/5 311/6/5
f 313/6/5 306/6/5 300/6/5
f 314/5/5 307/5/5 306/5/5
f 314/6/5 306/6/5 313/6/5
f 315/6/5 309/6/5 308/6/5
f 315/5/5 307/5/5 314/5/5
f 315/6/5 308/6/5 307/6/5
f 315/6/5 310/6/5 309/6/5
f 315/6/5 311/6/5 310/6/5
f 316/5/5 312/5/5 311/5/5
f 316/6/5 311/6/5 315/6/5
f 317/6/5 305/6/5 312/6/5
f 317/5/5 312/5/5 316/5/5
f 318/6/5 305/6/5 317/6/5
f 321/3/5 320/3/5 319/3/5
f 322/3/5 320/3/5 321/3/5
f 325/3/5 324/3/5 323/3/5
f 326/3/5 324/3/5 325/3/5
f 329/3/5 328/3/5 327/3/5
f 330/3/5 328/3/5 329/3/5
f 334/1/5 332/1/5 331/1/5
f 335/1/5 332/1/5 334/1/5
f 337/1/5 334/1/5 333/1/5
f 338/1/5 334/1/5 337/1/5
f 339/1/5 336/1/5 335/1/5
f 340/1/5 336/1/5 339/1/5
f 341/1/5 339/1/5 338/1/5
f 342/1/5 339/1/5 341/1/5
f 346/2/5 344/2/5 343/2/5
f 347/2/5 344/2/5 346/2/5
f 351/2/5 346/2/5 345/2/5
f 352/2/5 346/2/5 351/2/5
f 353/2/5 348/2/5 347/2/5
f 354/2/5 348/2/5 353/2/5
f 356/4/5 350/4/5 349/4/5
f 357/4/5 350/4/5 356/4/5
f 359/2/5 353/2/5 352/2/5
f 360/2/5 353/2/5 359/2/5
f 361/4/5 356/4/5 355/4/5
f 362/4/5 356/4/5 361/4/5
f 363/4/5 358/4/5 357/4/5
f 364/4/5 358/4/5 363/4/5
f 365/4/5 363/4/5 362/4/5
f 366/4/5 363/4/5 365/4/5
f 367/5/6 368/5/6 374/5/6
f 368/6/6 369/6/6 375/6/6
f 374/5/6 368/5/6 375/5/6
f 375/6/6 369/6/6 376/6/6
f 369/5/6 370/5/6 377/5/6
f 376/6/6 369/6/6 377/6/6
f 370/6/6 371/6/6 378/6/6
f 377/5/6 370/5/6 378/5/6
f 371/5/6 372/5/6 379/5/6
f 378/6/6 371/6/6 379/6/6
f 372/6/6 373/6/6 380/6/6
f 379/5/6 372/5/6 380/5/6
f 375/5/6 376/5/6 381/5/6
f 374/6/6 375/6/6 381/6/6
f 378/6/6 379/6/6 382/6/6
f 381/5/6 376/5/6 382/5/6
f 376/6/6 377/6/6 382/6/6
f 379/6/6 380/6/6 382/6/6
f 377/6/6 378/6/6 382/6/6
f 382/6/6 380/6/6 383/6/6
f 383/6/6 380/6/6 384/6/6
f 384/6/6 380/6/6 385/6/6
f 380/6/6 373/6/6 386/6/6
f 385/6/6 380/6/6 386/6/6
f 386/6/6 373/6/6 387/6/6
f 381/6/6 382/6/6 388/6/6
f 383/6/6 384/6/6 389/6/6
f 384/5/6 385/5/6 390/5/6
f 389/6/6 384/6/6 390/6/6
f 385/6/6 386/6/6 391/6/6
f 390/5/6 385/5/6 391/5/6
f 391/6/6 386/6/6 392/6/6
f 386/5/6 387/5/6 393/5/6
f 392/6/6 386/6/6 393/6/6
f 393/5/6 387/5/6 394/5/6
f 374/6/6 381/6/6 395/6/6
f 388/6/6 389/6/6 395/6/6
f 381/6/6 388/6/6 395/6/6
f 395/6/6 389/6/6 396/6/6
f 389/5/6 390/5/6 397/5/6
f 396/6/6 389/6/6 397/6/6
f 391/6/6 392/6/6 398/6/6
f 397/5/6 390/5/6 398/5/6
f 390/6/6 391/6/6 398/6/6
f 392/5/6 393/5/6 399/5/6
f 398/6/6 392/6/6 399/6/6
f 393/6/6 394/6/6 400/6/6
f 399/5/6 393/5/6 400/5/6
f 374/6/6 395/6/6 401/6/6
f 395/5/6 396/5/6 402/5/6
f 401/6/6 395/6/6 402/6/6
f 398/6/6 399/6/6 403/6/6
f 402/5/6 396/5/6 403/5/6
f 396/6/6 397/6/6 403/6/6
f 399/6/6 400/6/6 403/6/6
f 397/6/6 398/6/6 403/6/6
f 403/6/6 400/6/6 404/6/6
f 404/6/6 400/6/6 405/6/6
f 400/6/6 394/6/6 406/6/6
f 405/6/6 400/6/6 406/6/6
f 406/6/6 394/6/6 407/6/6
f 401/5/6 402/5/6 408/5/6
f 402/6/6 403/6/6 409/6/6
f 408/5/6 402/5/6 409/5/6
f 403/6/6 404/6/6 409/6/6
f 409/6/6 404/6/6 410/6/6
f 410/6/6 404/6/6 411/6/6
f 411/6/6 404/6/6 412/6/6
f 404/5/6 405/5/6 413/5/6
f 406/5/6 407/5/6 414/5/6
f 414/5/6 407/5/6 415/5/6
f 408/6/6 409/6/6 416/6/6
f 410/6/6 411/6/6 417/6/6
f 411/5/6 412/5/6 418/5/6
f 417/6/6 411/6/6 418/6/6
f 412/6/6 404/6/6 419/6/6
f 418/5/6 412/5/6 419/5/6
f 404/5/6 413/5/6 420/5/6
f 419/6/6 404/6/6 420/6/6
f 414/6/6 415/6/6 421/6/6
f 420/5/6 413/5/6 421/5/6
f 413/6/6 414/6/6 421/6/6
f 421/6/6 415/6/6 422/6/6
f 408/6/6 416/6/6 423/6/6
f 416/5/6 417/5/6 424/5/6
f 423/6/6 416/6/6 424/6/6
f 417/6/6 418/6/6 425/6/6
f 424/5/6 417/5/6 425/5/6
f 418/6/6 419/6/6 425/6/6
f 419/6/6 420/6/6 425/6/6
f 420/6/6 421/6/6 425/6/6
f 421/5/6 422/5/6 426/5/6
f 425/6/6 421/6/6 426/6/6
f 422/6/6 415/6/6 427/6/6
f 426/5/6 422/5/6 427/5/6
f 427/6/6 415/6/6 428/6/6
f 429/3/6 430/3/6 431/3/6
f 431/3/6 430/3/6 432/3/6
f 433/3/6 434/3/6 437/3/6
f 437/3/6 434/3/6 438/3/6
f 435/3/6 436/3/6 439/3/6
f 439/3/6 436/3/6 440/3/6
f 441/1/6 442/1/6 444/1/6
f 444/1/6 442/1/6 445/1/6
f 443/1/6 444/1/6 447/1/6
f 444/7/6 445/7/6 448/7/6
f 447/1/6 444/1/6 448/1/6
f 445/1/6 446/1/6 449/1/6
f 448/7/6 445/7/6 449/7/6
f 449/1/6 446/1/6 450/1/6
f 448/1/6 449/1/6 451/1/6
f 451/1/6 449/1/6 452/1/6
f 453/2/6 454/2/6 456/2/6
f 456/2/6 454/2/6 457/2/6
f 455/2/6 456/2/6 461/2/6
f 456/7/6 457/7/6 462/7/6
f 461/2/6 456/2/6 462/2/6
f 457/2/6 458/2/6 463/2/6
f 462/7/6 457/7/6 463/7/6
f 463/2/6 458/2/6 464/2/6
f 459/4/6 460/4/6 466/4/6
f 466/4/6 460/4/6 467/4/6
f 462/2/6 463/2/6 469/2/6
f 469/2/6 463/2/6 470/2/6
f 465/4/6 466/4/6 471/4/6
f 466/7/6 467/7/6 472/7/6
f 471/4/6 466/4/6 472/4/6
f 467/4/6 468/4/6 473/4/6
f 472/7/6 467/7/6 473/7/6
f 473/4/6 468/4/6 474/4/6
f 472/4/6 473/4/6 475/4/6
f 475/4/6 473/4/6 476/4/6
